<?xml version="1.0" encoding="UTF-8" standalone="no"?><!DOCTYPE svg PUBLIC "-//W3C//DTD SVG 1.1//EN" "http://www.w3.org/Graphics/SVG/1.1/DTD/svg11.dtd"><svg width="100%" height="100%" viewBox="0 0 507 507" version="1.1" xmlns="http://www.w3.org/2000/svg" xmlns:xlink="http://www.w3.org/1999/xlink" xml:space="preserve" xmlns:serif="http://www.serif.com/" style="fill-rule:evenodd;clip-rule:evenodd;stroke-linejoin:round;stroke-miterlimit:2;"><rect x="0" y="0" width="507" height="507" style="fill:none;"/><g><path d="M507,232.68c0,8.283 -6.73,15.014 -15.013,15.014c-8.283,-0 -15.014,-6.731 -15.014,-15.014l0,-50.734c0,-10.872 -4.314,-20.708 -11.389,-27.783c-7.248,-7.076 -16.911,-11.39 -27.611,-11.39l-336.331,-0.345l-71.788,0l-0,108.027c-6.73,5.349 -12.942,11.389 -18.465,17.946c-4.314,5.005 -8.11,10.182 -11.389,15.704l0,-143.575c0,-17.947 6.73,-34.341 18.119,-46.593c11.217,-12.425 26.921,-20.536 44.695,-22.261l293.536,-26.403c10.008,-0.863 19.327,0.173 28.3,3.106c8.801,3.107 17.085,7.938 24.505,14.669c7.42,6.902 12.942,14.495 16.739,23.123c3.624,8.111 5.522,17.084 5.694,26.748l6.385,0c18.983,0 36.239,7.766 48.664,20.19c12.598,12.598 20.363,29.854 20.363,48.837l0,50.734Zm-465.412,-120.106l134.43,0l225.717,0.173c-0.173,-5.177 -1.208,-10.009 -3.279,-14.496c-2.071,-4.832 -5.35,-9.319 -9.491,-13.115c-4.315,-3.969 -8.801,-6.73 -13.806,-8.283c-5.004,-1.726 -10.354,-2.416 -16.221,-1.898l-293.363,26.575c-9.491,0.863 -17.774,4.832 -23.987,11.044Zm366.014,144.438c17.602,0 31.752,14.323 31.752,31.752c-0,17.602 -14.15,31.753 -31.752,31.753c-17.602,-0 -31.752,-14.151 -31.752,-31.753c-0,-17.429 14.15,-31.752 31.752,-31.752Zm-338.403,75.412c-5.867,-5.868 -5.867,-15.359 0,-21.226c5.867,-5.867 15.359,-5.867 21.226,-0l19.672,19.673l53.668,-53.669c5.868,-5.694 15.359,-5.694 21.054,0.173c5.867,5.867 5.867,15.186 -0,21.053l-63.505,63.332c-0.172,0.345 -0.518,0.69 -0.69,0.863c-5.867,5.867 -15.359,5.867 -21.226,-0l-30.199,-30.199Zm22.951,-88.872c8.111,-1.381 15.877,4.142 17.085,12.252c1.38,8.111 -4.142,15.876 -12.253,17.257c-19.155,3.106 -36.066,12.942 -48.146,27.093c-11.734,13.978 -18.982,32.097 -18.982,51.942c-0,22.089 8.973,42.106 23.469,56.602c14.496,14.496 34.513,23.296 56.602,23.296c19.845,0 37.964,-7.075 51.77,-18.809c14.323,-12.08 24.159,-28.991 27.265,-48.146c1.381,-8.111 8.974,-13.633 17.257,-12.253c8.11,1.208 13.633,8.974 12.252,17.085c-4.314,26.402 -17.947,49.526 -37.447,66.092c-19.155,16.222 -44.004,26.058 -71.097,26.058c-30.372,-0 -57.81,-12.252 -77.828,-32.097c-19.845,-20.018 -32.097,-47.456 -32.097,-77.828c0,-27.093 9.836,-51.942 26.058,-71.27c16.566,-19.327 39.69,-33.132 66.092,-37.274Zm119.416,188.442l226.235,0c10.872,0 20.535,-4.314 27.611,-11.389c7.247,-7.075 11.561,-16.911 11.561,-27.611l0,-47.8c0,-8.284 6.731,-15.014 15.014,-15.014c8.283,0 15.013,6.73 15.013,15.014l0,47.8c0,18.983 -7.765,36.239 -20.363,48.837c-12.425,12.424 -29.681,20.19 -48.836,20.19l-259.885,-0c5.522,-3.279 10.699,-7.075 15.703,-11.389c6.558,-5.523 12.598,-11.735 17.947,-18.638Z" style="fill:#524db4;"/><path d="M123.903,220.946c30.716,3.279 58.5,17.084 79.208,37.964c20.88,20.708 34.685,48.491 37.964,79.208c0.863,8.283 8.111,14.151 16.394,13.288c8.283,-0.863 14.15,-8.111 13.288,-16.394c-3.969,-37.964 -20.881,-71.96 -46.421,-97.327c-25.367,-25.54 -59.535,-42.624 -97.327,-46.593c-8.283,-0.691 -15.704,5.177 -16.394,13.46c-0.863,8.283 5.004,15.531 13.288,16.394Z" style="fill:#41dcde;"/></g></svg>